<svg id="Layer_1" data-name="Layer 1" xmlns="http://www.w3.org/2000/svg" viewBox="0 0 1568.38 414.28"><defs><style>.cls-1{fill:#ffff5f;}.cls-2{fill:#feffbd;}</style></defs><title>go-to-thinkdrops-2</title><path class="cls-1" d="M214.35,100.43c.31,1.57-19.44,7-43.54,12.89l-2.26-7.67a14.15,14.15,0,0,1,5.35-1,16.11,16.11,0,0,1,5.24,1,18.67,18.67,0,0,1,8.05,6.22,18.05,18.05,0,0,1,2.5,4.62,9.67,9.67,0,0,1,.41,1.29c.11.44.26.9.32,1.32a19.76,19.76,0,0,1,.33,2.52,23.85,23.85,0,0,1-1.39,9.67,36.47,36.47,0,0,1-9.84,14.41,46.89,46.89,0,0,1-12.92,8.5,49.83,49.83,0,0,1-9.22,3,47.73,47.73,0,0,1-53-26.42,48.11,48.11,0,0,1-4.25-18.91,57,57,0,0,1,3-19.26,66.08,66.08,0,0,1,8.69-17.15c7.39-10.5,17.49-17.9,27.31-23.05a118.06,118.06,0,0,1,27.87-10.09c4.16-1,7.91-1.68,11.35-2.19a20.18,20.18,0,0,1,5.07-.13,9.8,9.8,0,0,1,4.23,1.45,7.09,7.09,0,0,1,3.34,5.05c.11,1.43-.38,2.08-.51,2s-.12-.73-.55-1.82a6.4,6.4,0,0,0-3.33-3.43,8.16,8.16,0,0,0-3.37-.67,18.72,18.72,0,0,0-4.32.59C175.66,44,172,45.06,168,46.3a124.1,124.1,0,0,0-26.09,11.29,83.5,83.5,0,0,0-13.08,9.47c-1,.93-2,1.89-3,2.85s-2,2-2.85,3.06a57.69,57.69,0,0,0-5,6.71,59.15,59.15,0,0,0-7.1,15.37,49.11,49.11,0,0,0-2,16.5,39.44,39.44,0,0,0,3.88,15.27,37.94,37.94,0,0,0,9.11,11.67c.88.82,1.85,1.51,2.77,2.23s1.92,1.34,2.92,1.9,2,1.1,3,1.62l1.5.67a15,15,0,0,0,1.51.62,36.58,36.58,0,0,0,5.95,1.74c1,.15,1.93.38,2.89.44l1.41.16,1.39.06a38.08,38.08,0,0,0,9.92-1,41.3,41.3,0,0,0,7.25-2.43A39,39,0,0,0,172.52,138c.83-.68,1.55-1.48,2.34-2.24a30.44,30.44,0,0,0,2.07-2.45,23.64,23.64,0,0,0,3.17-5.48A15.89,15.89,0,0,0,181,125a12.62,12.62,0,0,0,.18-4.25c0-.24-.09-.41-.12-.62a2.64,2.64,0,0,0-.15-.6,8.74,8.74,0,0,0-1.1-2.37,10,10,0,0,0-1.77-2.07,9.77,9.77,0,0,0-2.17-1.47,7.64,7.64,0,0,0-2.25-.66,6.3,6.3,0,0,0-2.12.2l-2.25-7.68C193.7,101.49,214,98.85,214.35,100.43Z" transform="translate(-92.75 -6.5)"/><path class="cls-1" d="M272.51,85.63c0-.36.72-.61,2-.74a16.16,16.16,0,0,1,5.41.71,24.42,24.42,0,0,1,7.35,3.85,27.26,27.26,0,0,1,7,7.85,25.94,25.94,0,0,1,3.62,11.64,31.37,31.37,0,0,1-2,12.4A67.92,67.92,0,0,1,291,131.61a48.55,48.55,0,0,1-6.1,8.69,32.34,32.34,0,0,1-4.67,4.28,29.75,29.75,0,0,1-7.42,4A38,38,0,0,1,258,150.84a35,35,0,0,1-5.59-.69,36.62,36.62,0,0,1-5.66-1.65,32.82,32.82,0,0,1-5.52-2.78,26.74,26.74,0,0,1-5-4.13,23.18,23.18,0,0,1-3.9-5.6c-.27-.51-.46-1.06-.69-1.59a16.93,16.93,0,0,1-.59-1.64,23.36,23.36,0,0,1-.73-3.33,29.54,29.54,0,0,1-.22-6.48,48.86,48.86,0,0,1,.84-6.06A56.73,56.73,0,0,1,243.2,91.38,34.45,34.45,0,0,1,251,84.62a22.59,22.59,0,0,1,8.69-3.28,18.61,18.61,0,0,1,7.69.49,14.78,14.78,0,0,1,5.22,2.57c2.54,2,3.11,3.83,2.85,4s-1.47-1-4-2.19a15.52,15.52,0,0,0-4.73-1.3,16.76,16.76,0,0,0-6.27.47,19.34,19.34,0,0,0-6.64,3.4,30.73,30.73,0,0,0-6,6.3,52.14,52.14,0,0,0-8.22,18,48.75,48.75,0,0,0-1,5.1,40.82,40.82,0,0,0-.4,5.09,17.05,17.05,0,0,0,1.87,8.7c2.69,4.86,8.58,7.75,14.12,8.6a25.22,25.22,0,0,0,4.11.34,27.28,27.28,0,0,0,4-.22,26,26,0,0,0,6.81-1.74,20.05,20.05,0,0,0,4.83-2.76,24,24,0,0,0,3.18-3,48.52,48.52,0,0,0,5-6.89,74.25,74.25,0,0,0,4.68-8.56,24.83,24.83,0,0,0,2.31-8.71,19.51,19.51,0,0,0-1.52-8.39,24.34,24.34,0,0,0-4.29-6.87,27.29,27.29,0,0,0-5.09-4.47C275,87.18,272.42,86.42,272.51,85.63Z" transform="translate(-92.75 -6.5)"/><path class="cls-1" d="M473.4,136.31c.54.47-.31,2.63-2.44,5.74a38.75,38.75,0,0,1-11,10.6,28.82,28.82,0,0,1-4.35,2.29,26.79,26.79,0,0,1-5,1.61,27.4,27.4,0,0,1-5.38.67,25.63,25.63,0,0,1-5.57-.44A22.47,22.47,0,0,1,429.4,152a23.22,23.22,0,0,1-6.15-8.27,30.09,30.09,0,0,1-1.58-4.49,40.58,40.58,0,0,1-1.05-5.72,80.36,80.36,0,0,1-.15-13.69c.49-9.68,1.45-21.06,2.9-32.33s3.37-22.42,5.36-31.71a184,184,0,0,1,5.46-20.66l.4-1.13.87.39a2.6,2.6,0,0,1,1.38,1.53,2.41,2.41,0,0,1,.08,1.36c-.21.72-.61.9-.73.81s-.11-.41-.27-.84a1.91,1.91,0,0,0-.39-.66,1,1,0,0,0-.7-.34l1.27-.73c-.2,4.16-1.11,11.75-2.07,21.11s-2,20.47-2.61,31.63-1,22.36-1.05,31.87a77.13,77.13,0,0,0,.55,12.07,26,26,0,0,0,2,7.2,14.83,14.83,0,0,0,3.32,4.81,13.62,13.62,0,0,0,5.63,3.09,17.29,17.29,0,0,0,3.58.64,19.79,19.79,0,0,0,3.77,0,21.75,21.75,0,0,0,3.72-.65,24.61,24.61,0,0,0,3.6-1.22A57.92,57.92,0,0,0,468,139.18C470.92,137.1,472.84,135.83,473.4,136.31Z" transform="translate(-92.75 -6.5)"/><path class="cls-1" d="M479.22,82.32c.34,2.9-19.83,7.59-31.49,8.93s-64.46,5-64.79,2.13,51.93-11.27,63.59-12.61S478.89,79.43,479.22,82.32Z" transform="translate(-92.75 -6.5)"/><path class="cls-1" d="M535.47,85.11c-.15-.31.4-1,1.68-1.83a19.28,19.28,0,0,1,6-2.44,26.7,26.7,0,0,1,9.86-.46,27.83,27.83,0,0,1,11.78,4.42,30.78,30.78,0,0,1,9.74,10.49,30.17,30.17,0,0,1,2.88,7.06,31.19,31.19,0,0,1,1,7.6,37.49,37.49,0,0,1-10.06,25.43,48.55,48.55,0,0,1-13.21,10,62.78,62.78,0,0,1-22.35,6.73,64.68,64.68,0,0,1-13.43.09,51.08,51.08,0,0,1-14-3.23,33,33,0,0,1-6.8-3.7,24.41,24.41,0,0,1-5.71-5.76,22.67,22.67,0,0,1-3.38-7.39,27.29,27.29,0,0,1-.84-7.72,35.13,35.13,0,0,1,3.57-14A69.28,69.28,0,0,1,499,99.24c2.44-3.28,4.76-6.35,7.23-9.2a44.52,44.52,0,0,1,7.81-7.24,26.2,26.2,0,0,1,8.15-3.91,19.79,19.79,0,0,1,6.83-.7,13.05,13.05,0,0,1,4.23,1c.9.42,1.31.77,1.25.93-.13.41-2.1-.17-5.46.18a20.9,20.9,0,0,0-5.84,1.54A25,25,0,0,0,516.58,86a43.64,43.64,0,0,0-6.41,7.15c-2.06,2.81-4.15,6-6.27,9.37a65.82,65.82,0,0,0-5.56,10.5,28.5,28.5,0,0,0-2.26,11.4,17.27,17.27,0,0,0,3.34,10.28,19.47,19.47,0,0,0,9.06,6.08A43,43,0,0,0,520.11,143a57.17,57.17,0,0,0,11.48-.48,54.75,54.75,0,0,0,18.64-6.18,40.46,40.46,0,0,0,10.34-8.06,31.44,31.44,0,0,0,5.49-8.13,27.84,27.84,0,0,0,2.64-10.3,22.47,22.47,0,0,0-2-10.52,24.54,24.54,0,0,0-6.39-8.5,23.94,23.94,0,0,0-8.56-4.65,28.47,28.47,0,0,0-8.15-1.23C538.83,84.88,535.8,85.84,535.47,85.11Z" transform="translate(-92.75 -6.5)"/><path class="cls-1" d="M474.15,194.62c.9,2.75-8.23,8.5-20.63,14.14a244,244,0,0,1-39.77,13.86c-1.45.35-3.24.77-5.3,1.24l-7,1.45c-5.15,1.07-11.25,2.16-17.92,3.31-13.33,2.27-29,4.38-43.91,5.79s-29.19,2.11-39.71,2.07c-2.64,0-5-.08-7.16-.18-1.06-.05-2-.11-3-.18a5.28,5.28,0,0,1-.57-.06l-.44-.05a5.15,5.15,0,0,1-.61-.06l-.08,0s0,0-.08-.08l-.19-.19-.11-.08c-.06,0,0,0,.06,0h0l-.72-.13,0,0h-.18l.07,0a.55.55,0,0,0,.15-.16.65.65,0,0,0,.15-.23l.06-.11s0,0,0,0a.55.55,0,0,0,.13.28s.06.09.06.12a2.05,2.05,0,0,0,.08.2.81.81,0,0,0,.1.18c.11.17.21.12,0,.12s0,0,0,0l.1-.1a1.12,1.12,0,0,1,.21-.18.38.38,0,0,1,.28-.05.47.47,0,0,1,.36.32,1,1,0,0,1-.22,1,2,2,0,0,1-.91.57,2.42,2.42,0,0,1-1.17.1,2.34,2.34,0,0,1-.78-.27,3.43,3.43,0,0,1-.45-.35,2.34,2.34,0,0,1-.62-2,3.21,3.21,0,0,1,.26-1,4.13,4.13,0,0,1,1.35-1.63,7.51,7.51,0,0,1,1.59-.86c.27-.1.53-.2.8-.28l.74-.21c.88-.27,1.82-.54,2.84-.82,2-.56,4.35-1.14,6.88-1.74,10.14-2.45,23.91-5.38,38.31-8.65s29.45-6.83,42.28-10.08l29.18-7.48c11.4-2.75,27.3-5.75,40.57-7.67S473.25,191.83,474.15,194.62Z" transform="translate(-92.75 -6.5)"/><path class="cls-1" d="M379.5,368.22c-1.3.55-3.45-.76-5.59-3.88a36.44,36.44,0,0,1-5.05-13.51,93.53,93.53,0,0,1-1.35-17.06c0-2.77,0-5.38.06-7.89s.14-4.89.3-7.06c.26-4.35,1-12.5,1.65-22.33s1.11-21.35,1.34-32.39.18-21.57.39-29.43.69-13,2.15-13.27c.72-.12,1.62,1,2.65,3.12a63.26,63.26,0,0,1,3.34,9,220.79,220.79,0,0,1,6.36,29.54A318.61,318.61,0,0,1,389,296.68c.45,10.3.25,18.9,0,23.47-.16,2.28-.37,4.78-.75,7.38s-.79,5.36-1.31,8c-1,5.35-2.22,10.48-3.09,15s-1.43,8.56-1.92,11.69S380.87,367.65,379.5,368.22Z" transform="translate(-92.75 -6.5)"/><path class="cls-1" d="M478.78,359.27c-2.92-.2-5.06-7.62-6.57-17a199.14,199.14,0,0,1-2.47-28.87c0-4.1.3-11.8.57-21.06s.55-20.1.78-30.45c.54-20.71.73-39.56,3.65-39.94s7.94,18,11.24,38.9c1.69,10.44,3,21.47,3.77,31s1.1,17.41,1.1,21.63a136,136,0,0,1-3.73,29.45C484.81,352.32,481.67,359.46,478.78,359.27Z" transform="translate(-92.75 -6.5)"/><path class="cls-1" d="M547.64,349a1.34,1.34,0,0,1-.49,1,2.28,2.28,0,0,1-1.84.4,5.07,5.07,0,0,1-2.54-1.37,9.34,9.34,0,0,1-1.89-2.6,13.34,13.34,0,0,1-1.12-3.3c-.26-.87-.5-1.79-.74-2.77-.46-1.94-.88-4.08-1.26-6.31-.76-4.46-1.39-9.28-2-13.78s-1.3-8.66-1.84-12.07c-.17-.84-.29-1.89-.52-3.06s-.43-2.4-.76-3.68a26.56,26.56,0,0,0-3.14-7.66,10.53,10.53,0,0,0-2.23-2.56,4.56,4.56,0,0,0-.59-.42,2.51,2.51,0,0,1-.29-.2l-.33-.14a4.58,4.58,0,0,0-1.49-.5,13.63,13.63,0,0,0-4.84.19,52.51,52.51,0,0,0-6.32,1.73A83.15,83.15,0,0,0,501.29,297a110.55,110.55,0,0,0-9.81,5.86c-5.6,3.71-9.23,6.57-10.44,5.67s.32-5.46,4.7-11.55a62.16,62.16,0,0,1,8.74-9.62,72.35,72.35,0,0,1,12.76-9.08,58.61,58.61,0,0,1,7.74-3.71,30.25,30.25,0,0,1,10-2.11,23.81,23.81,0,0,1,11.33,2.58,27.63,27.63,0,0,1,8.27,6.51,36.88,36.88,0,0,1,4.9,7.16,48.23,48.23,0,0,1,2.86,6.59,52.59,52.59,0,0,1,1.56,5.5c.4,1.56.61,2.92.82,4a65,65,0,0,1,.45,15,89.26,89.26,0,0,1-2.51,14.88c-.58,2.26-1.21,4.35-1.86,6.24-.33.94-.66,1.83-1,2.66-.32.47-.59.95-.84,1.38a7.39,7.39,0,0,1-.68,1,8.23,8.23,0,0,0-.66.8,1.59,1.59,0,0,0-.14,1A5.94,5.94,0,0,1,547.64,349Z" transform="translate(-92.75 -6.5)"/><path class="cls-1" d="M602.51,351.73c-5.82,0-10.44-16.26-10.37-25.49s5.08-50.78,10.9-50.74,10.27,41.66,10.2,50.89S608.34,351.77,602.51,351.73Z" transform="translate(-92.75 -6.5)"/><path class="cls-1" d="M604.09,231.4a3,3,0,0,1,.72-2.13,4.32,4.32,0,0,1,1.1-1,6.48,6.48,0,0,1,1.61-.76,13,13,0,0,1,10,1.38,17.09,17.09,0,0,1,5.21,4.38,18,18,0,0,1,3.43,7,19.45,19.45,0,0,1,.22,7.8,20,20,0,0,1-2.32,6.41,21.46,21.46,0,0,1-5.81,6.44,20.9,20.9,0,0,1-5.36,2.9,20.56,20.56,0,0,1-6.89,1.28,21.67,21.67,0,0,1-13.31-4.5,19.94,19.94,0,0,1-7.61-12.18,18.46,18.46,0,0,1,.15-6.86,18.67,18.67,0,0,1,2.22-5.53,16.89,16.89,0,0,1,7-6.54,10.48,10.48,0,0,1,6.26-1.15c1.53.31,2.29,1,2.36,1.67s-.47,1.52-1.17,2.42a18.47,18.47,0,0,0-2.23,3.41,11.54,11.54,0,0,0-1.27,4.67,8.13,8.13,0,0,0,.23,2.31,4.73,4.73,0,0,0,.87,1.62,5.77,5.77,0,0,0,2.76,1.48,3.38,3.38,0,0,0,2.49-.22,1,1,0,0,0,.34-.45c.08-.13.18-.29.27-.47.2-.34.37-.67.47-.88a2.48,2.48,0,0,1,1.1-1,1.52,1.52,0,0,0,.65-1,5.2,5.2,0,0,0,.07-1.92,12.94,12.94,0,0,0-1.64-4.46C605.22,234.18,604.21,232.87,604.09,231.4Z" transform="translate(-92.75 -6.5)"/><path class="cls-1" d="M679.4,355.58c-2.92.07-5.64-4.18-7.75-9.62A61.53,61.53,0,0,1,667.78,329c-.26-4.87.06-18.33.78-30.7s2-23.69,4.89-24.06,6.9,10.4,10,22.65,5.17,25.92,5.44,30.92a55.74,55.74,0,0,1-2.28,17.61C684.86,351.11,682.31,355.52,679.4,355.58Z" transform="translate(-92.75 -6.5)"/><path class="cls-1" d="M749.74,345.1c-2.92.12-5.89-7.89-8.22-18.25-1.17-5.17-2.18-11-2.95-16.55-.72-5.33-1.42-10.44-2-14.73-.29-2-.67-4.94-1.42-8.25-.38-1.64-.88-3.41-1.46-5.18a26.16,26.16,0,0,0-2.13-4.77,12,12,0,0,0-2.66-3.27,5.67,5.67,0,0,0-1.39-.89,7.64,7.64,0,0,0-2.09-.53,21.63,21.63,0,0,0-6.43.37,13.65,13.65,0,0,0-1.78.35l-1.78.41-1.76.54-.88.27-.87.33A53.7,53.7,0,0,0,699,282a95.33,95.33,0,0,0-10.07,8.59c-5.61,5.47-9.09,9.54-10.43,8.82s-.21-6.1,3.84-13.72A65.15,65.15,0,0,1,691,273.31a58,58,0,0,1,14.46-11.81l1.09-.63,1.13-.57,2.3-1.13c.79-.34,1.59-.65,2.39-1s1.61-.64,2.45-.88a36.88,36.88,0,0,1,10.89-2.13,25.55,25.55,0,0,1,6.46.6,23.64,23.64,0,0,1,6.36,2.45,29.13,29.13,0,0,1,8.93,7.95,42.55,42.55,0,0,1,4.9,8.37,65.93,65.93,0,0,1,2.73,7.33,71.52,71.52,0,0,1,2.38,10.79,91.2,91.2,0,0,1,.53,16.77c-.3,5.73-.84,11.52-1.57,16.79C755,336.75,752.65,345,749.74,345.1Z" transform="translate(-92.75 -6.5)"/><path class="cls-1" d="M805.62,361.22c-2.9.21-6.2-9.08-8.87-21.16a248.59,248.59,0,0,1-5.2-37.79c-.56-10.84-.71-40.76.52-68s3.64-51.63,6.54-51.64,5.73,24.3,8.37,51.25,5.09,56.55,5.65,67.31a293.84,293.84,0,0,1-1,37.9C810.5,351.38,808.54,361,805.62,361.22Z" transform="translate(-92.75 -6.5)"/><path class="cls-1" d="M874.26,243.64c2,2.12-.21,7.8-4.17,14a84.62,84.62,0,0,1-14.43,16.92c-4.74,4.14-18.73,14.48-32.24,22.72S797,311.8,795.3,309.47s7.94-12.77,18.83-23.9,23.08-23,27.72-27a98.42,98.42,0,0,1,18.21-12C866.5,243.3,872.26,241.51,874.26,243.64Z" transform="translate(-92.75 -6.5)"/><path class="cls-1" d="M877.3,361.58c-1.46,2.5-7.27,2.18-14,0a62.91,62.91,0,0,1-18.86-10,119.27,119.27,0,0,1-11.23-10.76,159.25,159.25,0,0,1-14-17.41c-2.15-3.1-4.14-6.25-5.77-9.1s-3.06-5.41-4.26-7.6c-2.35-4.38-4-7.34-3.09-8.52.44-.56,1.55-.62,3.14-.13a24.38,24.38,0,0,1,5.94,3,78.61,78.61,0,0,1,7.31,5.65l7.84,6.72c5.39,4.59,11.09,9.23,16,13.06s9.16,6.89,11.3,8.63a110.33,110.33,0,0,1,13.89,14C875.79,354.26,878.79,359.05,877.3,361.58Z" transform="translate(-92.75 -6.5)"/><path class="cls-1" d="M978.89,334c1.61,2.41-5,10.07-15.12,18.05a63.3,63.3,0,0,1-8.92,6.05,33.72,33.72,0,0,1-12.75,4.13,27.2,27.2,0,0,1-7.72-.35,28.85,28.85,0,0,1-7-2.35,35.29,35.29,0,0,1-5.44-3.29,44.74,44.74,0,0,1-13-15,52.76,52.76,0,0,1-6.15-19.54,51.18,51.18,0,0,1,.11-11.85c.16-1,.31-2,.49-3.06l.71-3.05a51.15,51.15,0,0,1,2-5.87,68.83,68.83,0,0,1,12.69-19.76c4.94-5.58,10.75-10.72,17.29-14a34.49,34.49,0,0,1,10-3.25,28.27,28.27,0,0,1,9.25.07,21,21,0,0,1,11.81,5.91c2.14,2.36,2.54,4.17,2,4.6s-2.05-.27-4.44-1.1a23.29,23.29,0,0,0-9.9-1.21,22.8,22.8,0,0,0-6.33,1.5,27.62,27.62,0,0,0-6.35,3.62c-4.18,3.13-8.05,7.7-11.56,13a58,58,0,0,0-7.94,16.36,35.08,35.08,0,0,0-.86,4l-.24,1.93-.1,1.92a35.37,35.37,0,0,0,.66,7.43,35.77,35.77,0,0,0,4.77,11.89,37.25,37.25,0,0,0,5.47,6.61c.75.65,1.51,1.43,2.33,2.07a23.59,23.59,0,0,0,2.35,1.7,9.46,9.46,0,0,0,4.28,1.61A18.67,18.67,0,0,0,948,342a85.25,85.25,0,0,0,8.36-2.89C967.85,334.74,977.27,331.58,978.89,334Z" transform="translate(-92.75 -6.5)"/><path class="cls-1" d="M990.58,357.5c-1.44.22-3.17-2.1-5-6.1a103.85,103.85,0,0,1-5.47-16.17,217,217,0,0,1-6.46-41c-.12-3-.32-7.21-.29-12.4,0-2.59,0-5.41,0-8.42s.17-6.19.26-9.52c.49-13.32,1.69-28.82,3.6-43.48a333.27,333.27,0,0,1,7-38.47,97.29,97.29,0,0,1,3.61-11.89c1.09-2.8,2-4.32,2.74-4.21,3,.48,1.33,26.67,1.52,55.53,0,14.44.38,29.54,1,42.45.15,3.23.3,6.32.44,9.23s.33,5.64.48,8.14c.24,5,.59,9.12.7,12,.55,11.43.61,27.22.2,40.32a149.64,149.64,0,0,1-1.21,16.73C993,354.54,992,357.28,990.58,357.5Z" transform="translate(-92.75 -6.5)"/><path class="cls-1" d="M1045.45,360.3c-2.91,0-5.5-5.07-7.3-11.58a74.72,74.72,0,0,1-2.62-20.2c.16-5.75,1.89-21.55,4.58-35.8s6.22-26.94,9.12-26.73,4.61,13.21,5.78,27.52,1.77,30,1.62,35.64a80.77,80.77,0,0,1-3.56,19.83C1051.05,355.35,1048.37,360.33,1045.45,360.3Z" transform="translate(-92.75 -6.5)"/><path class="cls-1" d="M1120.39,286.65c-.66,5.79-17.5,8.61-26.79,7.54-1.16-.13-2.82-.39-4.84-.77s-4.4-.88-6.49-1.29a28.91,28.91,0,0,0-5.76-.65,16,16,0,0,0-5.77,1.24c-4.14,1.66-8.34,5-11.64,7.39s-5.92,3.94-7.14,3.11-1-3.76.51-8a38,38,0,0,1,3.41-7.07,34.69,34.69,0,0,1,6.39-7.75,29.43,29.43,0,0,1,10.27-6,36.78,36.78,0,0,1,11-1.7c3.16-.06,5.58.07,7.62.15s3.72.21,4.89.35C1105.31,274.3,1121.06,280.86,1120.39,286.65Z" transform="translate(-92.75 -6.5)"/><path class="cls-1" d="M1195.45,265.83c.65-1.25,4.26-1.1,9.57,1.17a46.49,46.49,0,0,1,8.76,5.17,55.21,55.21,0,0,1,9.3,8.79,60.87,60.87,0,0,1,8,12.24,50.14,50.14,0,0,1,4.9,15.27,37,37,0,0,1,.17,8.89,30.54,30.54,0,0,1-2.4,9.06,32.84,32.84,0,0,1-4.59,7.48,41,41,0,0,1-5.25,5.34,58.43,58.43,0,0,1-6.32,4.65c-1.21.8-2.49,1.57-3.82,2.35s-2.73,1.59-4.25,2.41a86.69,86.69,0,0,1-10.58,4.94,55.92,55.92,0,0,1-13.77,3.46,43,43,0,0,1-16.25-1.21,33.43,33.43,0,0,1-15.48-9.32,36.55,36.55,0,0,1-8.51-15.44,47.73,47.73,0,0,1-1.55-16.29c.13-1.32.2-2.64.44-3.94l.32-1.94c.11-.64.27-1.27.41-1.91.26-1.27.64-2.51,1-3.74a18.07,18.07,0,0,1,.59-1.8l.63-1.74a63.42,63.42,0,0,1,6.59-12.52,59.31,59.31,0,0,1,17.14-16.68q1.08-.7,2.16-1.29c.71-.41,1.39-.8,2.12-1.16a32.05,32.05,0,0,1,4.22-1.75,18.81,18.81,0,0,1,7.48-1,9.37,9.37,0,0,1,4.64,1.51c.92.66,1.22,1.25,1.07,1.56-.33.73-2.39.23-5.39,1.17a20.26,20.26,0,0,0-5.18,2.5,33.65,33.65,0,0,0-3,2.18c-.5.41-1,.88-1.56,1.35s-1.07,1-1.6,1.48a58.6,58.6,0,0,0-12,16.2,55.58,55.58,0,0,0-4,10.66,41.68,41.68,0,0,0-1,5.61c0,.47-.11.94-.15,1.42l-.06,1.42c-.08,1,0,1.91,0,2.86a33.85,33.85,0,0,0,2.14,10.9,20.11,20.11,0,0,0,5.38,8,15.59,15.59,0,0,0,7.65,3.7,25,25,0,0,0,9.08-.06c6-1.1,11.78-4.11,16.74-7.09,1.25-.75,2.45-1.5,3.6-2.24s2.17-1.4,3.08-2a52,52,0,0,0,4.26-3.23,20.24,20.24,0,0,0,4.78-5.48,11.59,11.59,0,0,0,1.19-3.19,18.56,18.56,0,0,0,.42-4.27,31.73,31.73,0,0,0-.48-5.07,51.22,51.22,0,0,0-1.28-5.43,62,62,0,0,0-4.1-10.37,84.65,84.65,0,0,0-10.59-15.75C1197,269.75,1194.76,267.15,1195.45,265.83Z" transform="translate(-92.75 -6.5)"/><path class="cls-1" d="M1281.64,411.76c-2.92.1-5.81-7.14-8.17-16.44a183.06,183.06,0,0,1-4.83-29c-.29-4.16-.56-12-.84-21.37s-.57-20.38-.76-30.87c-.35-21-.42-40,2.49-40.44s8.17,18,12.34,38.81c2.11,10.4,4,21.38,5.3,30.82s2.22,17.34,2.53,21.56a148.06,148.06,0,0,1-1.32,29.73C1286.93,404.19,1284.54,411.66,1281.64,411.76Z" transform="translate(-92.75 -6.5)"/><path class="cls-1" d="M1292,336.6c0-1.5,2.08-2.76,4.85-4.4a78.52,78.52,0,0,0,9.87-6.67c1.78-1.44,3.57-3,5.31-4.74s3.43-3.58,5-5.46,3.14-3.83,4.35-5.58a40.56,40.56,0,0,0,2.9-4.72,21.29,21.29,0,0,0,1.07-2.36,13,13,0,0,0,.76-2.94,21.49,21.49,0,0,0-1.21-9.57,56.18,56.18,0,0,0-2.6-6.52,48.34,48.34,0,0,0-3.36-6.27,14.24,14.24,0,0,0-3.46-3.87,6.92,6.92,0,0,0-4.11-1.23,19.67,19.67,0,0,0-6.31,1.27,68.16,68.16,0,0,0-6.95,2.95,98.87,98.87,0,0,0-11.77,6.46c-3.22,2.1-5.73,4.09-7.55,5.53s-3,2.26-3.69,1.9-.65-1.89.2-4.33a31.71,31.71,0,0,1,5.49-9.16,77.61,77.61,0,0,1,18.54-15.49,32.59,32.59,0,0,1,10.15-3.93,23.1,23.1,0,0,1,6.49-.31,22,22,0,0,1,6.71,1.73,29,29,0,0,1,10,7.57,59.13,59.13,0,0,1,6,8.31,68.19,68.19,0,0,1,4.42,8.33,45.45,45.45,0,0,1,3,9,35.44,35.44,0,0,1,.74,9.21,31.66,31.66,0,0,1-1.45,8,33.84,33.84,0,0,1-2.26,5.45,40.24,40.24,0,0,1-5.51,7.95,58.09,58.09,0,0,1-7,6.7,60,60,0,0,1-8.19,5.58,50.3,50.3,0,0,1-8.82,3.86,32.33,32.33,0,0,1-15.47,1.48,12.11,12.11,0,0,1-4.49-1.63C1292.51,338,1292,337.33,1292,336.6Z" transform="translate(-92.75 -6.5)"/><path class="cls-1" d="M1374.07,339.17c.78-1.13,3.23-.87,6.67-.81a53.43,53.43,0,0,0,5.88-.19,44.35,44.35,0,0,0,7-1.24,60.61,60.61,0,0,0,15.29-6.81c2.61-1.54,5.25-3.26,7.85-5,.61-.41,1.12-.77,1.53-1.09.08-.11,0-.11,0-.16a.22.22,0,0,0-.1-.15c-.07,0-.07,0-.08,0h0l0-.06-.09-.14a16.16,16.16,0,0,0-1.07-1.26c-.22-.22-.45-.45-.71-.68-.1-.1-.29-.25-.46-.4l-.53-.44a37.75,37.75,0,0,0-11.4-6.38,36.69,36.69,0,0,0-7.48-1.82c-.66-.09-1.32-.17-2-.22s-1.37-.09-2.14-.12c-1.53-.05-3.26,0-5.18-.08-1,0-2-.05-3-.12l-1-.06c-.4,0-.81-.07-1.21-.11l-1.2-.13-1.19-.19a25.18,25.18,0,0,1-8.68-3,17.33,17.33,0,0,1-6.11-5.85,13.9,13.9,0,0,1-1.63-3.87,12.3,12.3,0,0,1-.28-4.13,14.43,14.43,0,0,1,1.23-4.42,12.28,12.28,0,0,1,1.17-2.11l1.51-2c1-1.35,1.95-2.72,3.07-4,.63-.73.9-1,1.28-1.42s.7-.79,1.08-1.16a103.15,103.15,0,0,1,9-8.3,93.68,93.68,0,0,1,17.82-11.48,63.23,63.23,0,0,1,13.75-5.06,18.73,18.73,0,0,1,4.1-.55c1,0,1.56.17,1.7.53s-.16.9-.84,1.59a35.21,35.21,0,0,1-3.09,2.54c-2.71,2-6.6,4.72-11,8.29a120.62,120.62,0,0,0-13.93,13.17c-2.32,2.61-4.63,5.4-6.78,8.37-.29.36-.53.75-.8,1.13a10.43,10.43,0,0,0-.6.89c-.16.29-.27.56-.39.82a3.71,3.71,0,0,0-.43,1.47,1.42,1.42,0,0,0,.68,1.12,2.82,2.82,0,0,0,1.24.42,3.72,3.72,0,0,0,1.12,0l.24-.05.12,0a.17.17,0,0,1,.09,0h.26c.7,0,1.46-.08,2.24-.13,1.59-.13,3.33-.3,5.23-.41a55.21,55.21,0,0,1,36,10.45l.89.66c.29.22.57.43.9.7.64.51,1.24,1.05,1.81,1.58a32.64,32.64,0,0,1,3.13,3.35l.73,1c.3.38.55.77.8,1.15a23.29,23.29,0,0,1,1.32,2.27,22.36,22.36,0,0,1,1.7,4.28,19.93,19.93,0,0,1,.68,5.7,18.67,18.67,0,0,1-.35,3,24.27,24.27,0,0,1-.84,2.93,19.46,19.46,0,0,1-5.26,7.4,26.88,26.88,0,0,1-3.8,2.82c-1,.59-1.86,1.07-2.69,1.5a103.2,103.2,0,0,1-10,4.48c-7.07,2.69-15,4.36-22.16,3.9A36.19,36.19,0,0,1,1385,349a25.93,25.93,0,0,1-6.94-3.57C1374.45,342.8,1373.33,340.22,1374.07,339.17Z" transform="translate(-92.75 -6.5)"/><path class="cls-1" d="M1475.86,332.17a4.8,4.8,0,0,1,1.67-1.36,4.37,4.37,0,0,1,2.35-.4,7.76,7.76,0,0,1,5.33,3.42,11.62,11.62,0,0,1,2,8.24,12.64,12.64,0,0,1-1.61,4.7,12.92,12.92,0,0,1-1.46,2,12.7,12.7,0,0,1-1.76,1.64,14.11,14.11,0,0,1-5.42,2.48,15.57,15.57,0,0,1-11.89-2.13,14.1,14.1,0,0,1-3.69-3.48,13,13,0,0,1-2.19-4.78,12.33,12.33,0,0,1-.11-4.67,11.79,11.79,0,0,1,3.62-6.74,8.88,8.88,0,0,1,5.79-2.46,5.26,5.26,0,0,1,4.22,1.66,2.11,2.11,0,0,1,.51,1.42,1.64,1.64,0,0,1-.49,1c-.26.26-.56.48-.81.73a2.65,2.65,0,0,0-.33.42,1.67,1.67,0,0,0-.12.23l-.06.16a2,2,0,0,0-.1.47,3.27,3.27,0,0,0,0,.61,4.45,4.45,0,0,0,.14,1,2,2,0,0,0,.39.79,2.59,2.59,0,0,0,.62.55,1.63,1.63,0,0,0,.49.26,1.41,1.41,0,0,0-.35,0,2.4,2.4,0,0,0-.9.15l-.17.06-.13.07,0,0h0l.2-.14.06,0a2.21,2.21,0,0,0,.43-.6,2.82,2.82,0,0,0,.26-.73c0-.37,0-.13.09.24a3,3,0,0,0,.41.84,1.39,1.39,0,0,0,.16.17l-.22-.2-.08-.06a2.41,2.41,0,0,0-.68-.31,2.2,2.2,0,0,0-.7-.12c-.14,0-.16,0,0,0l.09,0,.21-.08a3.46,3.46,0,0,0,.72-.36,5.76,5.76,0,0,0,1.36-1.19C1474.37,334.63,1475,333.32,1475.86,332.17Z" transform="translate(-92.75 -6.5)"/><path class="cls-1" d="M1547.17,335.72c.8,1.21-3,5.37-8.35,10.17a20.54,20.54,0,0,1-5.59,3.62,14,14,0,0,1-4,1,15.12,15.12,0,0,1-4.11-.21,20.35,20.35,0,0,1-11.77-7.08,25.24,25.24,0,0,1-4.07-7.07,26.8,26.8,0,0,1-1.41-5.27,28.94,28.94,0,0,1-.31-6.07,35.61,35.61,0,0,1,3.06-12.48,45.29,45.29,0,0,1,3-5.77,42.42,42.42,0,0,1,3.87-5.26c5.55-6.59,13.15-10.73,19.16-11.51a18.12,18.12,0,0,1,7.09.3c1.63.5,2.44,1,2.37,1.36s-1,.57-2.5.76a30,30,0,0,0-5.95,1.56c-4.7,1.78-10.33,6.07-14.26,12.08a38.8,38.8,0,0,0-2.66,4.65,41.75,41.75,0,0,0-2,5,28.32,28.32,0,0,0-1.5,9.52,18.84,18.84,0,0,0,1.59,7.28,18.21,18.21,0,0,0,2.6,4.2A16.76,16.76,0,0,0,1524,339a12.28,12.28,0,0,0,3.28,1.84,7.57,7.57,0,0,0,1.61.4,5.42,5.42,0,0,0,1.6,0,16.2,16.2,0,0,0,4.19-1.52C1541,336.54,1546.36,334.5,1547.17,335.72Z" transform="translate(-92.75 -6.5)"/><path class="cls-1" d="M1547,350.78c-1.44.17-3.14-3-4.51-7.12a57.76,57.76,0,0,1-2.61-13.14,177.51,177.51,0,0,1,.7-23.81c.87-9.5,2.55-17.95,4-17.89s2.42,8.54,3.46,17.84,2.11,19.48,2.37,23.18a76.62,76.62,0,0,1-.49,13.1C1549.34,347.2,1548.42,350.61,1547,350.78Z" transform="translate(-92.75 -6.5)"/><path class="cls-1" d="M1574.24,355.52c-2.91.12-5.81-12.92-6.13-20.42s.65-41.37,3.56-41.49,6.68,33.56,7,41.05S1577.15,355.4,1574.24,355.52Z" transform="translate(-92.75 -6.5)"/><path class="cls-1" d="M1608.68,298.19c-.36,1.42-2.72,2.14-5.4,2.52a59.65,59.65,0,0,1-7.44.54,28.69,28.69,0,0,0-4.64.12,19.8,19.8,0,0,0-6.65,2.23c-2.32,1.21-4.54,2.76-6.3,3.87s-3.11,1.77-3.7,1.32-.33-1.93.56-4a26,26,0,0,1,4.83-7.09,22.91,22.91,0,0,1,8.71-5.75,21.75,21.75,0,0,1,7.34-1.28,18.7,18.7,0,0,1,8.91,2.72C1607.41,295,1609,296.78,1608.68,298.19Z" transform="translate(-92.75 -6.5)"/><path class="cls-1" d="M1661.13,287.49c.07,1.46-2.19,2.88-5.09,4a36.15,36.15,0,0,1-9,2.26c-2.61.24-9.84.4-16.49.42s-12.76-.2-13-1.64,5.42-3.85,12-5.75a108.72,108.72,0,0,1,16.58-3.53,31.24,31.24,0,0,1,9.55.79C1658.65,284.83,1661.06,286,1661.13,287.49Z" transform="translate(-92.75 -6.5)"/><path class="cls-1" d="M1660.31,340.47c.64.32.57,2.16-.29,5a23.22,23.22,0,0,1-2.19,5,18.35,18.35,0,0,1-2,2.83,14.53,14.53,0,0,1-1.34,1.39c-.25.23-.49.45-.76.67l-.88.67a15.53,15.53,0,0,1-8.82,2.69,13.13,13.13,0,0,1-5.25-1.12,11.93,11.93,0,0,1-4.62-3.69,14.13,14.13,0,0,1-2.31-4.92,23.43,23.43,0,0,1-.66-4.33c-.09-1.31-.11-2.41-.14-3.47s0-2.11,0-3.09c-.08-7.9.51-29.65,2-49.36s3.79-37.36,5.24-37.28,1.78,17.83,2.22,37.49,1,41.24,1,49.07v3.07q0,1.52,0,3.12a17.14,17.14,0,0,0,.16,2.54,5.56,5.56,0,0,0,.45,1.6,2.65,2.65,0,0,0,.81,1,4.36,4.36,0,0,0,1.68.68,8.51,8.51,0,0,0,4.5-.43l.51-.21.55-.29c.36-.21.72-.42,1.07-.66a17.61,17.61,0,0,0,2-1.57,45.42,45.42,0,0,0,3.25-3.37C1658.29,341.44,1659.65,340.13,1660.31,340.47Z" transform="translate(-92.75 -6.5)"/><path class="cls-2" d="M207,109.45c.32,1.58-19.44,7-43.53,12.9l-2.26-7.68a14.31,14.31,0,0,1,5.35-1,15.86,15.86,0,0,1,5.24,1,18.6,18.6,0,0,1,8.05,6.22,17.83,17.83,0,0,1,2.5,4.61,9.36,9.36,0,0,1,.41,1.3c.11.43.25.89.32,1.31a21.62,21.62,0,0,1,.33,2.53,23.82,23.82,0,0,1-1.39,9.66,36.31,36.31,0,0,1-9.85,14.41,46.3,46.3,0,0,1-12.92,8.5,49.33,49.33,0,0,1-9.22,3,47.74,47.74,0,0,1-53-26.41,48,48,0,0,1-4.25-18.92,57.11,57.11,0,0,1,2.95-19.26A66.24,66.24,0,0,1,104.4,84.5c7.39-10.5,17.49-17.89,27.31-23a118.06,118.06,0,0,1,27.87-10.09c4.16-1,7.91-1.68,11.35-2.19A20.1,20.1,0,0,1,176,49a9.94,9.94,0,0,1,4.24,1.46,7,7,0,0,1,3.33,5c.12,1.43-.38,2.09-.5,2.05s-.13-.73-.55-1.82a6.46,6.46,0,0,0-3.33-3.42,7.85,7.85,0,0,0-3.37-.67,18.6,18.6,0,0,0-4.32.58c-3.18.79-6.89,1.82-10.83,3.06a124.26,124.26,0,0,0-26.08,11.29,83.22,83.22,0,0,0-13.08,9.47c-1,.93-2,1.89-3,2.86s-2,2-2.86,3.06a57.85,57.85,0,0,0-5.05,6.7,59.45,59.45,0,0,0-7.09,15.37,49.43,49.43,0,0,0-2,16.51,39.44,39.44,0,0,0,3.88,15.26,38.25,38.25,0,0,0,9.11,11.68c.89.81,1.86,1.5,2.78,2.23s1.91,1.33,2.91,1.89,2,1.1,3,1.62l1.51.68c.49.23,1,.43,1.5.61a37,37,0,0,0,6,1.74c1,.15,1.93.38,2.89.45l1.4.15,1.39.06a37.73,37.73,0,0,0,9.93-.95,41.46,41.46,0,0,0,7.24-2.43,38.88,38.88,0,0,0,10.2-6.52c.83-.68,1.55-1.48,2.33-2.24a30.55,30.55,0,0,0,2.08-2.45,23.6,23.6,0,0,0,3.16-5.48,15.6,15.6,0,0,0,.88-2.88,12.2,12.2,0,0,0,.27-2.86,10.73,10.73,0,0,0-.1-1.4c0-.24-.08-.41-.11-.61a2.64,2.64,0,0,0-.15-.6,9.11,9.11,0,0,0-1.1-2.38,10.9,10.9,0,0,0-1.77-2.07,10.13,10.13,0,0,0-2.17-1.47,7.61,7.61,0,0,0-2.26-.66,6.21,6.21,0,0,0-2.11.2l-2.25-7.67C186.35,110.52,206.67,107.87,207,109.45Z" transform="translate(-92.75 -6.5)"/><path class="cls-2" d="M265.16,94.65c0-.36.72-.61,2-.74a16.17,16.17,0,0,1,5.41.72,24.07,24.07,0,0,1,7.36,3.84,27.18,27.18,0,0,1,7,7.86A25.72,25.72,0,0,1,290.52,118a31.26,31.26,0,0,1-2,12.41,68.38,68.38,0,0,1-4.84,10.27,48.83,48.83,0,0,1-6.1,8.68,32.33,32.33,0,0,1-4.67,4.29,30.24,30.24,0,0,1-7.42,4,35.74,35.74,0,0,1-9.52,2.13,37.14,37.14,0,0,1-5.3.1,35.1,35.1,0,0,1-5.6-.69,37.6,37.6,0,0,1-5.65-1.64,32.14,32.14,0,0,1-5.52-2.79,26.43,26.43,0,0,1-5-4.13A23,23,0,0,1,225,145c-.27-.52-.47-1.07-.69-1.6a16,16,0,0,1-.59-1.64,24.72,24.72,0,0,1-.74-3.32,30.27,30.27,0,0,1-.21-6.49,46.88,46.88,0,0,1,.84-6,56.6,56.6,0,0,1,12.28-25.51,34,34,0,0,1,7.77-6.77,22.77,22.77,0,0,1,8.68-3.28,18.85,18.85,0,0,1,7.7.49,15,15,0,0,1,5.22,2.57c2.54,2,3.1,3.84,2.85,4s-1.47-1-4-2.18a15,15,0,0,0-4.73-1.3,16.73,16.73,0,0,0-6.27.46,19.47,19.47,0,0,0-6.65,3.4,30.5,30.5,0,0,0-6,6.31,51.88,51.88,0,0,0-8.22,18,48.08,48.08,0,0,0-1,5.09,40.82,40.82,0,0,0-.4,5.1,17,17,0,0,0,1.87,8.7c2.69,4.85,8.58,7.75,14.12,8.59a26.4,26.4,0,0,0,4.1.35,28.81,28.81,0,0,0,4-.23,26.38,26.38,0,0,0,6.81-1.73,20.74,20.74,0,0,0,4.83-2.76,25.38,25.38,0,0,0,3.18-3,47.62,47.62,0,0,0,5-6.88,73.78,73.78,0,0,0,4.69-8.57,24.49,24.49,0,0,0,2.3-8.7,19.48,19.48,0,0,0-1.52-8.39,24,24,0,0,0-4.28-6.87,27.09,27.09,0,0,0-5.1-4.48C267.59,96.21,265.07,95.44,265.16,94.65Z" transform="translate(-92.75 -6.5)"/><path class="cls-2" d="M466.05,145.34c.54.46-.31,2.62-2.44,5.74a39,39,0,0,1-11,10.6,30.34,30.34,0,0,1-4.36,2.29,27.42,27.42,0,0,1-5,1.6,26.68,26.68,0,0,1-5.39.67,25,25,0,0,1-5.56-.44A22.22,22.22,0,0,1,422.05,161a23,23,0,0,1-6.15-8.27,29,29,0,0,1-1.58-4.49,40.27,40.27,0,0,1-1.06-5.72,81.34,81.34,0,0,1-.14-13.68c.49-9.69,1.44-21.07,2.89-32.33s3.37-22.43,5.37-31.72a184.48,184.48,0,0,1,5.45-20.66l.41-1.13.86.4a2.55,2.55,0,0,1,1.39,1.52,2.4,2.4,0,0,1,.07,1.36c-.2.73-.6.9-.72.82s-.12-.42-.27-.84a1.86,1.86,0,0,0-.4-.66,1,1,0,0,0-.69-.35l1.27-.73c-.2,4.16-1.11,11.76-2.07,21.11s-2,20.47-2.61,31.63-1,22.36-1.06,31.87a79.8,79.8,0,0,0,.55,12.08,26.23,26.23,0,0,0,2,7.19,14.52,14.52,0,0,0,3.32,4.81,13.56,13.56,0,0,0,5.63,3.09,17.17,17.17,0,0,0,3.58.64,19,19,0,0,0,3.77,0,20.11,20.11,0,0,0,3.72-.65,25.81,25.81,0,0,0,3.6-1.21,58.89,58.89,0,0,0,11.52-6.87C463.56,146.12,465.49,144.85,466.05,145.34Z" transform="translate(-92.75 -6.5)"/><path class="cls-2" d="M471.87,91.35c.33,2.89-19.84,7.59-31.49,8.93s-64.46,5-64.79,2.13,51.93-11.28,63.58-12.62S471.54,88.45,471.87,91.35Z" transform="translate(-92.75 -6.5)"/><path class="cls-2" d="M528.12,94.13c-.15-.31.4-1,1.67-1.83a19.14,19.14,0,0,1,6-2.43,26.68,26.68,0,0,1,9.86-.47,28,28,0,0,1,11.78,4.43,30.58,30.58,0,0,1,9.73,10.49,30,30,0,0,1,2.89,7.05,31.68,31.68,0,0,1,1,7.6A37.48,37.48,0,0,1,561,144.4a48.43,48.43,0,0,1-13.21,10,63.12,63.12,0,0,1-22.35,6.73,65.28,65.28,0,0,1-13.42.08A51,51,0,0,1,498,158a33,33,0,0,1-6.8-3.71,24.4,24.4,0,0,1-5.72-5.75,23,23,0,0,1-3.38-7.4,27.65,27.65,0,0,1-.83-7.72,35,35,0,0,1,3.57-14,68.74,68.74,0,0,1,6.83-11.12c2.44-3.29,4.75-6.35,7.23-9.21a44.17,44.17,0,0,1,7.81-7.24,26.1,26.1,0,0,1,8.15-3.91,19.79,19.79,0,0,1,6.83-.7,12.91,12.91,0,0,1,4.22,1c.91.42,1.32.77,1.26.94-.13.4-2.1-.18-5.46.17a20.81,20.81,0,0,0-5.84,1.54,24.45,24.45,0,0,0-6.64,4.19,42.79,42.79,0,0,0-6.41,7.15c-2.06,2.8-4.15,6-6.27,9.36a65.82,65.82,0,0,0-5.56,10.5,28.53,28.53,0,0,0-2.26,11.4,17.32,17.32,0,0,0,3.34,10.29,19.29,19.29,0,0,0,9.05,6.07A43.17,43.17,0,0,0,512.76,152a57,57,0,0,0,11.47-.48,54.6,54.6,0,0,0,18.64-6.18,40.37,40.37,0,0,0,10.35-8.06,31.35,31.35,0,0,0,5.48-8.12,27.94,27.94,0,0,0,2.64-10.31,22.27,22.27,0,0,0-2-10.51,24.36,24.36,0,0,0-6.39-8.5,23.85,23.85,0,0,0-8.57-4.66,28.37,28.37,0,0,0-8.15-1.23C531.47,93.91,528.44,94.86,528.12,94.13Z" transform="translate(-92.75 -6.5)"/><path class="cls-2" d="M466.8,203.64c.89,2.75-8.23,8.5-20.64,14.15a243.8,243.8,0,0,1-39.76,13.85c-1.46.36-3.24.77-5.3,1.24l-7,1.45c-5.15,1.07-11.26,2.16-17.92,3.31-13.33,2.27-29,4.38-43.91,5.79s-29.2,2.12-39.72,2.08c-2.63,0-5-.09-7.15-.19-1.06,0-2.05-.11-3-.17l-.57-.06-.45-.05-.6-.06-.08,0s0,0-.08-.08-.16-.15-.19-.19l-.12-.08c-.05,0,0,0,.07,0h0a7.17,7.17,0,1,0-.72-.14h-.24s.07,0,.08-.05a.46.46,0,0,0,.15-.16.83.83,0,0,0,.15-.23l.05-.11s0,0,0,0a.43.43,0,0,0,.13.28s.06.09.06.13a2.05,2.05,0,0,0,.08.19.4.4,0,0,0,.1.18c.11.17.21.13,0,.12s0,0,0,0l.11-.1a.91.91,0,0,1,.21-.18.38.38,0,0,1,.28,0,.53.53,0,0,1,.36.32,1,1,0,0,1-.22,1,2.18,2.18,0,0,1-.91.58,2.58,2.58,0,0,1-1.17.09,2.14,2.14,0,0,1-.78-.27,2.48,2.48,0,0,1-.45-.35,2.16,2.16,0,0,1-.4-.57,2.61,2.61,0,0,1-.22-1.39,3.28,3.28,0,0,1,.26-1,4.16,4.16,0,0,1,1.34-1.62,7.2,7.2,0,0,1,1.6-.87c.26-.1.53-.19.8-.27l.74-.22c.87-.27,1.82-.54,2.84-.82,2-.56,4.34-1.14,6.88-1.74,10.14-2.45,23.9-5.38,38.3-8.65s29.46-6.83,42.29-10.08l29.18-7.47c11.4-2.76,27.3-5.76,40.57-7.67S465.89,200.85,466.8,203.64Z" transform="translate(-92.75 -6.5)"/><path class="cls-2" d="M372.15,377.24c-1.31.56-3.46-.76-5.59-3.87a36.57,36.57,0,0,1-5.05-13.52,94.44,94.44,0,0,1-1.36-17.06c0-2.76,0-5.37.07-7.88s.14-4.9.29-7.07c.27-4.35,1-12.5,1.65-22.33s1.12-21.35,1.34-32.38.19-21.58.4-29.43.68-13,2.15-13.28c.72-.12,1.62,1,2.65,3.12a65.8,65.8,0,0,1,3.34,9.05,219.22,219.22,0,0,1,6.35,29.55,321.22,321.22,0,0,1,3.22,33.56c.45,10.3.25,18.9,0,23.47-.17,2.28-.37,4.78-.75,7.39s-.79,5.35-1.31,8c-1,5.34-2.22,10.47-3.09,15s-1.44,8.55-1.92,11.69S373.52,376.67,372.15,377.24Z" transform="translate(-92.75 -6.5)"/><path class="cls-2" d="M471.43,368.29c-2.93-.2-5.06-7.62-6.57-17a196.25,196.25,0,0,1-2.47-28.87c0-4.1.29-11.8.56-21.06s.56-20.1.79-30.45c.54-20.71.72-39.56,3.65-39.94s7.93,18,11.24,38.91c1.69,10.43,3,21.46,3.76,30.95s1.11,17.41,1.1,21.63a135.31,135.31,0,0,1-3.72,29.45C477.46,361.34,474.32,368.48,471.43,368.29Z" transform="translate(-92.75 -6.5)"/><path class="cls-2" d="M540.28,358a1.33,1.33,0,0,1-.49,1,2.21,2.21,0,0,1-1.83.4,5.07,5.07,0,0,1-2.54-1.37,9.2,9.2,0,0,1-1.89-2.6,13.34,13.34,0,0,1-1.12-3.3c-.26-.86-.5-1.79-.74-2.76-.47-1.95-.88-4.09-1.26-6.31-.76-4.47-1.39-9.29-2-13.79s-1.3-8.66-1.84-12.07c-.17-.83-.29-1.89-.52-3.05s-.43-2.41-.76-3.68a26.79,26.79,0,0,0-3.14-7.67,10.71,10.71,0,0,0-2.24-2.56,3.81,3.81,0,0,0-.58-.41l-.3-.2-.32-.15a4.8,4.8,0,0,0-1.5-.5,13.61,13.61,0,0,0-4.83.2,51.9,51.9,0,0,0-6.32,1.72,82.21,82.21,0,0,0-12.1,5.13,111.82,111.82,0,0,0-9.8,5.85c-5.6,3.72-9.23,6.57-10.44,5.67s.31-5.46,4.69-11.54a62.32,62.32,0,0,1,8.75-9.62,72.38,72.38,0,0,1,12.76-9.09,58.61,58.61,0,0,1,7.74-3.71,30.25,30.25,0,0,1,10-2.11A24.06,24.06,0,0,1,529,284.08a27.76,27.76,0,0,1,8.27,6.51,37.7,37.7,0,0,1,4.9,7.17,47.19,47.19,0,0,1,2.86,6.59,51.82,51.82,0,0,1,1.56,5.49c.39,1.57.6,2.92.81,4a63.91,63.91,0,0,1,.45,15,89.34,89.34,0,0,1-2.5,14.87c-.58,2.26-1.21,4.36-1.86,6.24-.33.94-.66,1.83-1,2.66-.32.47-.6.95-.84,1.39a8.71,8.71,0,0,1-.69,1.05,6.06,6.06,0,0,0-.65.79,1.53,1.53,0,0,0-.14,1A5.92,5.92,0,0,1,540.28,358Z" transform="translate(-92.75 -6.5)"/><path class="cls-2" d="M595.16,360.75c-5.83,0-10.44-16.26-10.37-25.48s5.07-50.79,10.9-50.75,10.26,41.67,10.2,50.89S601,360.79,595.16,360.75Z" transform="translate(-92.75 -6.5)"/><path class="cls-2" d="M596.74,240.43a3,3,0,0,1,.72-2.14,4.34,4.34,0,0,1,1.1-1,6.67,6.67,0,0,1,1.61-.76,13,13,0,0,1,10,1.38,17.38,17.38,0,0,1,5.21,4.38,17.87,17.87,0,0,1,3.42,7,19.1,19.1,0,0,1,.22,7.8,19.68,19.68,0,0,1-2.31,6.41,21.38,21.38,0,0,1-5.82,6.44,20.57,20.57,0,0,1-5.36,2.9,20.21,20.21,0,0,1-6.88,1.28,21.65,21.65,0,0,1-13.31-4.5,20,20,0,0,1-7.62-12.18,18.9,18.9,0,0,1,.15-6.86,19.22,19.22,0,0,1,2.22-5.53,17,17,0,0,1,7-6.54,10.46,10.46,0,0,1,6.26-1.14c1.53.3,2.29,1,2.36,1.67s-.47,1.51-1.18,2.41a20,20,0,0,0-2.23,3.41,11.69,11.69,0,0,0-1.26,4.68,8,8,0,0,0,.23,2.3,4.57,4.57,0,0,0,.87,1.62,5.74,5.74,0,0,0,2.75,1.48,3.4,3.4,0,0,0,2.5-.22,1,1,0,0,0,.34-.45c.08-.13.18-.29.27-.47.2-.33.37-.67.47-.87a2.43,2.43,0,0,1,1.1-1,1.52,1.52,0,0,0,.65-1,5,5,0,0,0,.06-1.92,12.71,12.71,0,0,0-1.63-4.46C597.87,243.2,596.85,241.9,596.74,240.43Z" transform="translate(-92.75 -6.5)"/><path class="cls-2" d="M672.05,364.6c-2.92.07-5.65-4.18-7.75-9.62a61.4,61.4,0,0,1-3.88-17c-.25-4.87.06-18.32.78-30.7s2-23.69,4.89-24.05,6.91,10.4,10,22.65,5.17,25.91,5.43,30.91a55.71,55.71,0,0,1-2.27,17.61C677.5,360.13,675,364.54,672.05,364.6Z" transform="translate(-92.75 -6.5)"/><path class="cls-2" d="M742.38,354.13c-2.91.12-5.88-7.9-8.22-18.26-1.17-5.17-2.17-11-2.95-16.55l-2-14.72c-.29-2.05-.68-5-1.43-8.25-.37-1.65-.87-3.42-1.45-5.18a25.33,25.33,0,0,0-2.14-4.78,12,12,0,0,0-2.65-3.27,6.38,6.38,0,0,0-1.39-.88,7.59,7.59,0,0,0-2.1-.54,21.92,21.92,0,0,0-6.42.37,15.55,15.55,0,0,0-1.78.35l-1.78.41-1.76.55-.88.26-.87.33a53.2,53.2,0,0,0-12.93,7,93.17,93.17,0,0,0-10.07,8.58c-5.61,5.47-9.09,9.54-10.43,8.82s-.21-6.09,3.84-13.72a65.15,65.15,0,0,1,8.67-12.37,57.67,57.67,0,0,1,14.46-11.81l1.08-.63,1.14-.57,2.3-1.13,2.39-1a23.07,23.07,0,0,1,2.45-.89,37.53,37.53,0,0,1,10.89-2.13,25.94,25.94,0,0,1,6.45.6,23.6,23.6,0,0,1,6.37,2.46,29,29,0,0,1,8.93,7.94,42.32,42.32,0,0,1,4.9,8.38,65.09,65.09,0,0,1,2.73,7.32,71.78,71.78,0,0,1,2.38,10.79,90.38,90.38,0,0,1,.52,16.77c-.29,5.73-.83,11.52-1.57,16.8C747.6,345.77,745.29,354,742.38,354.13Z" transform="translate(-92.75 -6.5)"/><path class="cls-2" d="M798.27,370.24c-2.9.21-6.2-9.08-8.87-21.16a248.53,248.53,0,0,1-5.21-37.78c-.56-10.84-.71-40.77.52-68s3.65-51.63,6.55-51.65S797,216,799.63,242.94s5.09,56.55,5.64,67.32a291.87,291.87,0,0,1-1,37.89C803.14,360.4,801.18,370,798.27,370.24Z" transform="translate(-92.75 -6.5)"/><path class="cls-2" d="M866.91,252.66c2,2.13-.22,7.8-4.17,14a84.94,84.94,0,0,1-14.43,16.92c-4.74,4.14-18.73,14.48-32.24,22.73s-26.4,14.54-28.12,12.21,7.94-12.77,18.83-23.9,23.08-22.95,27.72-27a98.93,98.93,0,0,1,18.21-12C859.14,252.32,864.91,250.53,866.91,252.66Z" transform="translate(-92.75 -6.5)"/><path class="cls-2" d="M870,370.6c-1.46,2.5-7.27,2.19-14,0a63,63,0,0,1-18.86-10,118,118,0,0,1-11.23-10.76,157.19,157.19,0,0,1-14-17.41c-2.14-3.1-4.13-6.25-5.77-9.1s-3.06-5.41-4.25-7.6c-2.35-4.37-4-7.34-3.09-8.51.44-.56,1.55-.63,3.13-.14a24.15,24.15,0,0,1,6,3,76.93,76.93,0,0,1,7.31,5.65L823,322.5c5.4,4.59,11.1,9.23,16.06,13.06s9.16,6.89,11.3,8.64a111.55,111.55,0,0,1,13.89,14C868.44,363.29,871.43,368.07,870,370.6Z" transform="translate(-92.75 -6.5)"/><path class="cls-2" d="M971.54,343c1.6,2.41-5,10.07-15.12,18a62,62,0,0,1-8.93,6.05,33.61,33.61,0,0,1-12.75,4.13,27.5,27.5,0,0,1-7.71-.34,28.71,28.71,0,0,1-7-2.36,35.88,35.88,0,0,1-5.45-3.28,50,50,0,0,1-4.23-3.54,49.27,49.27,0,0,1-8.78-11.49,52.7,52.7,0,0,1-6.15-19.54,51.18,51.18,0,0,1,.11-11.85c.15-1,.31-2,.49-3.06l.71-3.05a51.8,51.8,0,0,1,2-5.87,68.83,68.83,0,0,1,12.69-19.76c4.94-5.58,10.74-10.72,17.29-14a34.8,34.8,0,0,1,10-3.25,28.27,28.27,0,0,1,9.25.07,21,21,0,0,1,11.81,5.92c2.14,2.36,2.53,4.17,2,4.59s-2-.26-4.44-1.09a23.33,23.33,0,0,0-16.23.28,27.58,27.58,0,0,0-6.35,3.62,52.56,52.56,0,0,0-11.57,13,58.41,58.41,0,0,0-7.94,16.36,37.81,37.81,0,0,0-.85,4l-.24,1.93-.1,1.93a35.34,35.34,0,0,0,.66,7.42,35.77,35.77,0,0,0,4.76,11.89,37.36,37.36,0,0,0,5.48,6.62c.75.64,1.51,1.42,2.33,2.06a22,22,0,0,0,2.34,1.7,9.35,9.35,0,0,0,4.28,1.61,18.66,18.66,0,0,0,6.77-.8c2.64-.71,5.47-1.79,8.35-2.89C960.5,343.76,969.91,340.6,971.54,343Z" transform="translate(-92.75 -6.5)"/><path class="cls-2" d="M983.23,366.52c-1.44.22-3.18-2.1-5-6.1a104.81,104.81,0,0,1-5.48-16.17,216.86,216.86,0,0,1-6.45-41c-.12-3-.32-7.21-.29-12.39,0-2.59,0-5.42,0-8.42s.18-6.2.27-9.53c.49-13.32,1.68-28.82,3.6-43.47a335.46,335.46,0,0,1,7-38.48,99.1,99.1,0,0,1,3.61-11.89c1.1-2.8,2-4.31,2.75-4.2,3,.47,1.33,26.66,1.52,55.52,0,14.44.38,29.54,1,42.45.15,3.23.3,6.32.44,9.23s.33,5.64.48,8.15c.24,5,.58,9.11.7,12,.55,11.44.6,27.22.2,40.33a149.32,149.32,0,0,1-1.22,16.72C985.68,363.57,984.67,366.3,983.23,366.52Z" transform="translate(-92.75 -6.5)"/><path class="cls-2" d="M1038.1,369.32c-2.91,0-5.51-5.07-7.31-11.57a74.3,74.3,0,0,1-2.61-20.2c.16-5.75,1.89-21.55,4.57-35.8s6.23-26.95,9.13-26.74,4.61,13.21,5.78,27.52,1.77,30,1.61,35.65a79.85,79.85,0,0,1-3.56,19.82C1043.7,364.38,1041,369.35,1038.1,369.32Z" transform="translate(-92.75 -6.5)"/><path class="cls-2" d="M1113,295.68c-.67,5.79-17.5,8.61-26.79,7.54-1.16-.14-2.82-.4-4.84-.78s-4.4-.88-6.5-1.28a28.1,28.1,0,0,0-5.75-.66,15.83,15.83,0,0,0-5.77,1.25c-4.14,1.66-8.35,5-11.65,7.39s-5.91,3.93-7.14,3.11-1-3.77.52-8a37.66,37.66,0,0,1,3.41-7.06,34.73,34.73,0,0,1,6.39-7.76,29.17,29.17,0,0,1,10.27-6,36.49,36.49,0,0,1,11-1.71c3.17-.05,5.59.08,7.62.15s3.73.22,4.89.35C1098,283.32,1113.71,289.89,1113,295.68Z" transform="translate(-92.75 -6.5)"/><path class="cls-2" d="M1188.1,274.85c.64-1.25,4.26-1.1,9.56,1.17a45.87,45.87,0,0,1,8.76,5.17,55.34,55.34,0,0,1,9.31,8.8,60.47,60.47,0,0,1,8,12.23,50,50,0,0,1,4.91,15.27,36.52,36.52,0,0,1,.16,8.89,30.83,30.83,0,0,1-2.39,9.06,32.8,32.8,0,0,1-4.6,7.49,40.23,40.23,0,0,1-5.24,5.33,58.43,58.43,0,0,1-6.32,4.65c-1.22.8-2.49,1.57-3.82,2.36s-2.74,1.58-4.26,2.41a88.3,88.3,0,0,1-10.58,4.94,56.3,56.3,0,0,1-13.76,3.45,43.06,43.06,0,0,1-16.26-1.21,33.51,33.51,0,0,1-15.48-9.31,36.86,36.86,0,0,1-8.51-15.45,47.73,47.73,0,0,1-1.55-16.29c.14-1.32.21-2.64.45-3.94l.31-1.93c.12-.64.28-1.28.42-1.91.26-1.27.63-2.52,1-3.75.17-.63.37-1.22.59-1.8l.63-1.74a63.42,63.42,0,0,1,6.59-12.52,59.31,59.31,0,0,1,17.14-16.68c.71-.47,1.44-.9,2.15-1.29s1.4-.79,2.13-1.15a30.84,30.84,0,0,1,4.22-1.76,19,19,0,0,1,7.48-1,9.4,9.4,0,0,1,4.64,1.52c.92.65,1.22,1.24,1.07,1.55-.34.73-2.39.24-5.39,1.18a20.11,20.11,0,0,0-5.18,2.5,33.44,33.44,0,0,0-3,2.17c-.5.41-1,.88-1.56,1.36s-1.08.95-1.61,1.48a58.57,58.57,0,0,0-12,16.19,55.58,55.58,0,0,0-4,10.66,42,42,0,0,0-1,5.61c-.05.48-.12.94-.15,1.42l-.07,1.43c-.08.94,0,1.9,0,2.85a33.27,33.27,0,0,0,2.14,10.9,20.31,20.31,0,0,0,5.37,8.05,15.71,15.71,0,0,0,7.66,3.7,24.93,24.93,0,0,0,9.07-.07c6-1.09,11.79-4.11,16.75-7.09,1.25-.75,2.44-1.5,3.6-2.24s2.17-1.4,3.07-2a46.62,46.62,0,0,0,4.26-3.24,20.24,20.24,0,0,0,4.79-5.47,11.66,11.66,0,0,0,1.19-3.2,19.67,19.67,0,0,0,.42-4.27,33,33,0,0,0-.48-5.07,48.27,48.27,0,0,0-1.29-5.42,61.23,61.23,0,0,0-4.09-10.38,84.2,84.2,0,0,0-10.59-15.74C1189.6,278.77,1187.4,276.18,1188.1,274.85Z" transform="translate(-92.75 -6.5)"/><path class="cls-2" d="M1274.29,420.78c-2.92.1-5.81-7.14-8.17-16.44a181.92,181.92,0,0,1-4.83-29c-.3-4.16-.56-12-.84-21.37s-.57-20.38-.76-30.87c-.35-21-.42-40,2.48-40.43s8.18,18,12.35,38.81c2.11,10.39,4,21.37,5.3,30.82s2.22,17.33,2.52,21.55a148.86,148.86,0,0,1-1.31,29.74C1279.58,413.21,1277.19,420.68,1274.29,420.78Z" transform="translate(-92.75 -6.5)"/><path class="cls-2" d="M1284.67,345.62c0-1.49,2.09-2.76,4.86-4.4a78.52,78.52,0,0,0,9.87-6.67c1.78-1.44,3.57-3,5.31-4.74s3.42-3.57,5-5.45,3.14-3.84,4.35-5.59a42,42,0,0,0,2.9-4.71,22.38,22.38,0,0,0,1.07-2.37,13.54,13.54,0,0,0,.76-2.94,21.58,21.58,0,0,0-1.21-9.56,55.59,55.59,0,0,0-2.6-6.53,48.34,48.34,0,0,0-3.36-6.27,14.4,14.4,0,0,0-3.46-3.87,6.93,6.93,0,0,0-4.12-1.23,19.72,19.72,0,0,0-6.31,1.27,71.36,71.36,0,0,0-6.94,2.95A99.86,99.86,0,0,0,1279,292c-3.22,2.1-5.72,4.09-7.54,5.53s-3,2.26-3.7,1.9-.64-1.89.21-4.33a31.48,31.48,0,0,1,5.49-9.16,67.67,67.67,0,0,1,11.12-10.44,66.35,66.35,0,0,1,7.42-5.05,32.49,32.49,0,0,1,10.15-3.93,23.8,23.8,0,0,1,6.48-.31,21.85,21.85,0,0,1,6.71,1.73,28.8,28.8,0,0,1,10,7.58,59.9,59.9,0,0,1,6,8.3,70.38,70.38,0,0,1,4.42,8.33,45.67,45.67,0,0,1,3,9,35.48,35.48,0,0,1,.74,9.22,32.12,32.12,0,0,1-1.45,8,34.94,34.94,0,0,1-2.26,5.46,40.52,40.52,0,0,1-5.52,7.94,56.54,56.54,0,0,1-7,6.7A60,60,0,0,1,1315,344a50.06,50.06,0,0,1-8.83,3.86,32.31,32.31,0,0,1-15.46,1.49,12.47,12.47,0,0,1-4.49-1.63C1285.16,347.05,1284.66,346.35,1284.67,345.62Z" transform="translate(-92.75 -6.5)"/><path class="cls-2" d="M1366.72,348.2c.77-1.14,3.22-.87,6.67-.82a53.43,53.43,0,0,0,5.88-.19,44.35,44.35,0,0,0,7-1.24,61.07,61.07,0,0,0,15.29-6.8c2.61-1.55,5.24-3.27,7.85-5,.61-.4,1.12-.77,1.52-1.09.09-.11,0-.11,0-.16a.25.25,0,0,0-.1-.15c-.07,0-.08,0-.09,0h0l0-.06-.09-.14a14.51,14.51,0,0,0-1.07-1.25c-.23-.23-.45-.46-.71-.69-.1-.1-.29-.25-.46-.4l-.53-.44a38.37,38.37,0,0,0-18.88-8.2c-.66-.09-1.32-.16-2-.21s-1.38-.1-2.15-.12c-1.53-.05-3.25-.05-5.17-.09-1,0-2-.05-3-.12l-1-.05-1.2-.12-1.2-.12-1.19-.19a25.45,25.45,0,0,1-8.69-3,17.24,17.24,0,0,1-6.11-5.85,13.87,13.87,0,0,1-1.62-3.87,12.51,12.51,0,0,1-.29-4.12,14.1,14.1,0,0,1,1.24-4.42,12.36,12.36,0,0,1,1.17-2.12l1.51-2.05c1-1.35,2-2.71,3.07-4,.63-.72.9-1,1.27-1.42s.71-.78,1.09-1.15a101.61,101.61,0,0,1,9-8.3,94,94,0,0,1,17.82-11.49,62.93,62.93,0,0,1,13.75-5.05,18.18,18.18,0,0,1,4.09-.56c1,0,1.57.17,1.71.53s-.16.9-.84,1.59a35.21,35.21,0,0,1-3.09,2.54c-2.71,2-6.6,4.73-11,8.29a119.82,119.82,0,0,0-13.93,13.17c-2.32,2.62-4.63,5.4-6.79,8.37-.28.36-.53.75-.79,1.13a10.43,10.43,0,0,0-.6.89c-.16.29-.27.56-.39.82a3.73,3.73,0,0,0-.44,1.48,1.45,1.45,0,0,0,.69,1.11,2.84,2.84,0,0,0,1.24.43,4.56,4.56,0,0,0,1.12,0l.24-.05.11,0,.1,0h.26c.7,0,1.46-.08,2.24-.14,1.58-.12,3.33-.29,5.23-.41a52.55,52.55,0,0,1,6-.05,54.41,54.41,0,0,1,11.58,1.78,55,55,0,0,1,18.34,8.73l.89.66c.29.22.57.42.9.7.63.51,1.23,1,1.81,1.57a34.85,34.85,0,0,1,3.13,3.35l.73,1c.3.38.54.77.79,1.15a21.55,21.55,0,0,1,1.33,2.27,23.31,23.31,0,0,1,1.7,4.28,20,20,0,0,1,.68,5.7,18.53,18.53,0,0,1-.35,3,22.18,22.18,0,0,1-.85,2.93,19.43,19.43,0,0,1-5.25,7.41,28.22,28.22,0,0,1-3.8,2.81c-1,.59-1.86,1.08-2.69,1.5a98.61,98.61,0,0,1-10,4.48c-7.07,2.69-15,4.36-22.16,3.91a36.58,36.58,0,0,1-9.67-1.85,26.16,26.16,0,0,1-6.95-3.57C1367.1,351.82,1366,349.24,1366.72,348.2Z" transform="translate(-92.75 -6.5)"/><path class="cls-2" d="M1468.51,341.19a4.88,4.88,0,0,1,1.66-1.36,4.31,4.31,0,0,1,2.35-.39,7.69,7.69,0,0,1,5.33,3.41,11.63,11.63,0,0,1,2,8.24,12.79,12.79,0,0,1-3.07,6.73,12.21,12.21,0,0,1-1.77,1.64,13.83,13.83,0,0,1-5.42,2.48,15.56,15.56,0,0,1-7.75-.24,15.09,15.09,0,0,1-4.13-1.89,14.06,14.06,0,0,1-3.69-3.47,12.85,12.85,0,0,1-2.19-4.79,12.55,12.55,0,0,1-.12-4.67,11.83,11.83,0,0,1,3.63-6.73,9,9,0,0,1,5.78-2.47,5.33,5.33,0,0,1,4.23,1.66,2.05,2.05,0,0,1,.5,1.43,1.52,1.52,0,0,1-.49,1c-.25.27-.55.48-.8.73a2.18,2.18,0,0,0-.33.42,1.67,1.67,0,0,0-.12.23.52.52,0,0,0-.06.16,2,2,0,0,0-.1.47,3.38,3.38,0,0,0,0,.62,3.91,3.91,0,0,0,.14,1,1.89,1.89,0,0,0,.39.79,2.78,2.78,0,0,0,.61.56,1.77,1.77,0,0,0,.5.25,1.41,1.41,0,0,0-.35,0,3,3,0,0,0-.91.15l-.17.07-.12.06,0,0,0,0h0l.2-.14.06-.05a2.45,2.45,0,0,0,.43-.6,2.91,2.91,0,0,0,.26-.72c.05-.38,0-.14.09.23a2.82,2.82,0,0,0,.41.84c.09.1.08.11.15.18l-.22-.21-.07-.06a2.72,2.72,0,0,0-.68-.31,2.24,2.24,0,0,0-.7-.12c-.14,0-.17,0,0,0l.09,0,.21-.08a4.1,4.1,0,0,0,.72-.37,5.76,5.76,0,0,0,1.36-1.19C1467,343.65,1467.6,342.34,1468.51,341.19Z" transform="translate(-92.75 -6.5)"/><path class="cls-2" d="M1539.81,344.74c.81,1.21-3,5.37-8.34,10.17a20.54,20.54,0,0,1-5.59,3.62,13.37,13.37,0,0,1-4,1,15.53,15.53,0,0,1-4.11-.2,20.41,20.41,0,0,1-11.77-7.09,25,25,0,0,1-4.07-7.07,26.8,26.8,0,0,1-1.41-5.27,28.84,28.84,0,0,1-.32-6.06,36.06,36.06,0,0,1,3.06-12.49,46.67,46.67,0,0,1,3-5.77,40.49,40.49,0,0,1,3.87-5.26c5.55-6.59,13.14-10.72,19.15-11.51a18.16,18.16,0,0,1,7.1.3c1.63.51,2.44,1,2.37,1.36s-1,.57-2.51.76a30.1,30.1,0,0,0-5.94,1.56c-4.7,1.78-10.34,6.08-14.26,12.09a37.91,37.91,0,0,0-2.66,4.64,42.43,42.43,0,0,0-2,5,28.35,28.35,0,0,0-1.51,9.52,19,19,0,0,0,1.6,7.28,18,18,0,0,0,2.6,4.2,16.38,16.38,0,0,0,2.59,2.53,12.09,12.09,0,0,0,3.28,1.83,7.42,7.42,0,0,0,1.61.4,5.1,5.1,0,0,0,1.6,0,16.33,16.33,0,0,0,4.18-1.51C1533.67,345.57,1539,343.52,1539.81,344.74Z" transform="translate(-92.75 -6.5)"/><path class="cls-2" d="M1539.62,359.8c-1.44.17-3.15-3-4.51-7.12a57.76,57.76,0,0,1-2.61-13.14,178.65,178.65,0,0,1,.69-23.8c.87-9.51,2.56-18,4-17.9s2.43,8.54,3.47,17.85,2.11,19.47,2.37,23.17a76.67,76.67,0,0,1-.5,13.1C1542,356.22,1541.07,359.63,1539.62,359.8Z" transform="translate(-92.75 -6.5)"/><path class="cls-2" d="M1566.89,364.54c-2.91.12-5.82-12.92-6.13-20.42s.65-41.37,3.56-41.49,6.67,33.56,7,41.06S1569.8,364.42,1566.89,364.54Z" transform="translate(-92.75 -6.5)"/><path class="cls-2" d="M1601.33,307.21c-.36,1.42-2.72,2.15-5.4,2.52a59.67,59.67,0,0,1-7.45.54,29.93,29.93,0,0,0-4.64.12,19.91,19.91,0,0,0-6.64,2.23c-2.32,1.22-4.54,2.76-6.31,3.88s-3.11,1.76-3.69,1.32-.34-1.93.56-4a25.72,25.72,0,0,1,4.83-7.09,22.77,22.77,0,0,1,8.71-5.74,21.53,21.53,0,0,1,7.34-1.29,18.54,18.54,0,0,1,8.9,2.73C1600.05,304,1601.68,305.81,1601.33,307.21Z" transform="translate(-92.75 -6.5)"/><path class="cls-2" d="M1653.78,296.51c.06,1.46-2.19,2.89-5.09,4a36.74,36.74,0,0,1-9,2.27c-2.61.23-9.84.39-16.5.41s-12.76-.19-13-1.63,5.42-3.85,12-5.75a107.8,107.8,0,0,1,16.58-3.54,31.55,31.55,0,0,1,9.55.79C1651.3,293.85,1653.71,295.06,1653.78,296.51Z" transform="translate(-92.75 -6.5)"/><path class="cls-2" d="M1653,349.49c.63.33.56,2.16-.29,5.05a22.82,22.82,0,0,1-2.2,5,18.26,18.26,0,0,1-2,2.83,17.49,17.49,0,0,1-1.34,1.4l-.76.67-.89.66a15.48,15.48,0,0,1-8.82,2.7,13.3,13.3,0,0,1-5.24-1.12,11.87,11.87,0,0,1-4.62-3.7,13.88,13.88,0,0,1-2.31-4.92,23.46,23.46,0,0,1-.66-4.32c-.09-1.32-.12-2.42-.15-3.48s0-2.11-.05-3.09c-.08-7.89.52-29.64,2.05-49.35s3.79-37.37,5.24-37.29,1.77,17.83,2.22,37.49,1,41.24,1,49.07v3.07q0,1.51,0,3.12a18.47,18.47,0,0,0,.17,2.54,5.47,5.47,0,0,0,.45,1.6,2.57,2.57,0,0,0,.81,1,4.38,4.38,0,0,0,1.67.69,8.51,8.51,0,0,0,4.5-.43l.51-.22.55-.29a10.07,10.07,0,0,0,1.08-.66,16.54,16.54,0,0,0,2-1.57c1.24-1.13,2.32-2.33,3.25-3.36C1650.94,350.46,1652.3,349.15,1653,349.49Z" transform="translate(-92.75 -6.5)"/><path class="cls-1" d="M1471.47,119.18c.22,6.62-24.77,13.41-56.83,19.34s-71.22,11.11-99.77,13.34c-7.13.56-17.41,1.21-29.94,1.93l-43.4,2.55c-32.24,1.89-69.87,4.24-105.77,6.56s-70.06,4.54-95.42,5.48-41.88.33-42.38-2.93,15.06-8.82,39.63-15.46,58.3-14,94-20.62,73.35-12.52,105.73-16.85c8.1-1.06,15.86-2.1,23.17-3l20.51-2.39c12.62-1.37,23-2.36,30.23-2.93,28.91-2.26,69-2.17,101.73.55S1471.25,112.62,1471.47,119.18Z" transform="translate(-92.75 -6.5)"/><path class="cls-1" d="M1304.64,224.44c-1.15-3.1,4-8.38,13.28-15s22.45-14.6,37.4-23.15,31.63-17.75,47.9-26.54,32.14-17.19,45.66-23.93l11.15-5.5,1.63-.81.7-.34v0l0,.05a.92.92,0,0,0,.25.08,4.22,4.22,0,0,0,1.14,0l1-.18.66-.16.37-.09.19,0,.1,0,0,0c.24-.37-.05-1-1.34-2.09-.32-.27-.73-.58-1.15-.9l-.06-.05,0,0,0,0-.16-.07-1.29-.54-2.57-1.07-5.16-2.17c-3.45-1.43-6.91-3-10.38-4.47s-7-3-10.42-4.58c-27.75-12.5-55.41-26.47-78.85-41.26l-8.62-5.48c-2.82-1.8-5.51-3.74-8.17-5.55s-5.26-3.62-7.77-5.42L1323,49.63c-2.33-1.8-4.62-3.49-6.76-5.24L1310,39.21l-5.65-4.87c-1.77-1.61-3.41-3.22-5-4.73-3.13-3.05-5.93-5.79-8.25-8.34s-4.16-4.91-5.61-6.87c-2.91-3.93-4.09-6.49-3.27-7.46s3.62-.31,8,1.67c2.19,1,4.77,2.31,7.7,3.93s6.38,3.29,10,5.33l5.78,3.19,6.37,3.32L1327,28c2.34,1.24,4.82,2.41,7.31,3.68l7.69,3.89,8.18,3.87c2.79,1.29,5.58,2.71,8.5,4l8.91,4c24.07,10.75,51.85,21,79.75,30.43l128.6,42.28-1.05.64-1.15.66-2.29,1.31-4.57,2.61-9,5.17-17.47,10c-5.7,3.23-11.19,6.39-16.66,9.43l-15.87,8.81-7.52,4.14-7.3,3.93-11.38,6c-4.35,2.32-8.2,4.24-11.39,5.86-13.94,7-30.9,14.4-48.66,21.2s-36.28,13-53.24,17.7-32.33,8-43.73,9.33S1305.78,227.53,1304.64,224.44Z" transform="translate(-92.75 -6.5)"/></svg>