<?xml version="1.0" encoding="UTF-8" standalone="no"?>
<!DOCTYPE svg PUBLIC "-//W3C//DTD SVG 1.1//EN" "http://www.w3.org/Graphics/SVG/1.1/DTD/svg11.dtd">
<svg width="100%" height="100%" viewBox="0 0 611 209" version="1.1" xmlns="http://www.w3.org/2000/svg" xmlns:xlink="http://www.w3.org/1999/xlink" xml:space="preserve" xmlns:serif="http://www.serif.com/" style="fill-rule:evenodd;clip-rule:evenodd;stroke-linejoin:round;stroke-miterlimit:2;">
    <g id="Artboard1" transform="matrix(0.98767,0,0,0.883495,-78.0598,-132.019)">
        <rect x="79.034" y="149.428" width="618.297" height="235.578" style="fill:none;"/>
        <clipPath id="_clip1">
            <rect x="79.034" y="149.428" width="618.297" height="235.578"/>
        </clipPath>
        <g clip-path="url(#_clip1)">
            <g transform="matrix(1.01248,0,0,1.13187,-0.95196,-33.0269)">
                <path d="M85.185,159.614C85.185,159.614 255.338,159.574 377.6,159.554C507.749,159.532 685.441,160.965 685.441,160.965C685.441,160.965 686.337,257.898 655.88,279.929C625.423,301.96 540.683,279.918 502.7,293.151C471.281,304.098 453.137,348.364 427.981,359.332C404.694,369.486 374.854,369.563 351.767,358.961C327.1,347.635 311.124,301.875 279.981,291.373C240.455,278.045 147.078,300.951 114.612,278.991C82.146,257.031 85.185,159.614 85.185,159.614Z" style="fill:rgb(30,31,16);"/>
            </g>
            <g transform="matrix(1.01248,0,0,1.13187,-0.95196,-33.0269)">
                <path d="M360.943,298.869C360.943,299.026 426.306,299.202 426.306,299.102C426.306,299.002 393.913,350.502 393.963,350.654C394.355,351.855 360.943,298.435 360.943,298.869Z" style="fill:rgb(213,217,143);"/>
            </g>
            <g transform="matrix(1.01248,0,0,1.13187,153.958,-28.4994)">
                <path d="M120.15,263.515C113.6,262.365 108.865,259.71 105.945,255.55C104.528,253.691 103.511,251.213 102.891,248.115L102.36,245.195C102.183,244.309 102.006,243.601 101.829,243.07C101.298,241.389 101.475,239.751 102.36,238.158C103.245,236.565 104.573,235.547 106.343,235.105C108.113,234.662 109.795,234.839 111.388,235.636C112.981,236.432 114.043,237.716 114.574,239.486C114.839,240.459 115.105,241.566 115.37,242.805C115.459,243.247 115.525,243.668 115.57,244.066C115.614,244.464 115.769,245.15 116.034,246.124C116.3,247.274 116.919,248.248 117.893,249.045C118.955,250.018 120.548,250.638 122.672,250.903C126.212,251.611 130.018,251.523 134.089,250.638C138.072,249.753 141.17,248.469 143.383,246.788C144.976,245.372 145.639,243.911 145.374,242.407C145.108,239.928 143.56,238.07 140.727,236.831C138.957,236.034 134.355,234.972 126.92,233.645C119.22,232.14 113.777,230.193 110.591,227.803C104.75,223.466 102.847,217.005 104.882,208.42C106.122,203.464 108.666,199.813 112.516,197.468C116.366,195.122 120.637,193.817 125.327,193.551C129.31,193.374 133.359,193.839 137.475,194.945C141.59,196.052 145.108,197.578 148.029,199.525C149.003,200.234 150.021,201.074 151.083,202.048C152.145,203.021 153.185,204.084 154.202,205.234C155.22,206.385 155.818,207.004 155.995,207.093C157.322,208.42 157.986,209.947 157.986,211.673C157.986,213.399 157.344,214.903 156.061,216.187C154.778,217.47 153.229,218.112 151.414,218.112C149.6,218.112 148.029,217.492 146.702,216.253C145.816,215.457 144.931,214.616 144.046,213.731L142.188,211.474C141.657,211.031 141.037,210.589 140.329,210.146C138.647,209.084 136.479,208.177 133.824,207.425C131.169,206.672 128.558,206.34 125.991,206.429C121.3,206.694 118.601,208.332 117.893,211.341C117.096,214.527 117.362,216.607 118.689,217.581C120.283,218.731 123.867,219.882 129.443,221.032C137.674,222.449 143.294,223.82 146.303,225.148C153.561,228.423 157.676,233.689 158.65,240.946C159.446,246.876 157.234,252.009 152.012,256.346C148.029,259.621 142.984,261.878 136.877,263.117C131.036,264.445 125.46,264.577 120.15,263.515Z" style="fill:rgb(254,255,234);fill-rule:nonzero;stroke:black;stroke-opacity:0;stroke-width:1px;"/>
                <path d="M217.064,261.391C206.886,250.151 199.009,239.619 193.433,229.794L186.264,235.769C186.087,235.946 185.91,236.078 185.733,236.167C185.556,243.07 185.29,250.107 184.936,257.276C184.848,259.134 184.117,260.683 182.746,261.922C181.374,263.161 179.781,263.737 177.966,263.648C176.152,263.56 174.625,262.829 173.386,261.457C172.147,260.086 171.572,258.515 171.66,256.745C172.634,236.388 173.121,209.173 173.121,175.098C173.121,173.239 173.762,171.668 175.046,170.385C176.329,169.102 177.9,168.46 179.758,168.46C181.617,168.46 183.188,169.102 184.471,170.385C185.755,171.668 186.396,173.239 186.396,175.098C186.396,192.445 186.308,206.96 186.131,218.643C199.053,207.845 207.992,200.057 212.948,195.277C214.099,193.861 215.603,193.109 217.462,193.02C219.321,192.932 220.936,193.485 222.308,194.68C223.68,195.875 224.41,197.401 224.498,199.26C224.587,201.119 224.011,202.712 222.772,204.039C218.347,208.376 212.019,214.085 203.788,221.165C209.098,230.901 216.798,241.389 226.888,252.629C228.127,253.957 228.702,255.528 228.614,257.342C228.525,259.156 227.795,260.683 226.423,261.922C225.051,263.161 223.458,263.737 221.644,263.648C219.83,263.56 218.303,262.807 217.064,261.391Z" style="fill:rgb(254,255,234);fill-rule:nonzero;stroke:black;stroke-opacity:0;stroke-width:1px;"/>
                <path d="M236.845,257.143C236.668,250.505 236.69,240.327 236.911,226.608C237.132,212.89 237.243,203.907 237.243,199.658C237.243,197.8 237.885,196.229 239.168,194.945C240.451,193.662 242.022,193.02 243.881,193.02C245.74,193.02 247.311,193.662 248.594,194.945C249.877,196.229 250.519,197.8 250.519,199.658C250.519,203.907 250.408,212.846 250.187,226.476C249.966,240.105 249.944,250.239 250.121,256.877C250.121,258.736 249.501,260.329 248.262,261.657C247.023,262.984 245.474,263.648 243.616,263.648C241.757,263.648 240.164,263.028 238.836,261.789C237.509,260.55 236.845,259.001 236.845,257.143ZM249.191,170.053C250.696,171.558 251.448,173.416 251.448,175.629C251.448,177.842 250.696,179.7 249.191,181.205C247.687,182.709 245.828,183.462 243.616,183.462C241.403,183.462 239.544,182.709 238.04,181.205C236.535,179.7 235.783,177.842 235.783,175.629C235.783,173.416 236.535,171.558 238.04,170.053C239.544,168.548 241.425,167.774 243.682,167.73C245.939,167.685 247.775,168.46 249.191,170.053Z" style="fill:rgb(254,255,234);fill-rule:nonzero;stroke:black;stroke-opacity:0;stroke-width:1px;"/>
                <path d="M280.39,257.143C280.301,259.001 279.593,260.55 278.266,261.789C276.938,263.028 275.345,263.604 273.486,263.515C271.628,263.427 270.079,262.719 268.84,261.391C267.601,260.064 267.025,258.47 267.114,256.612C267.468,244.841 267.645,235.901 267.645,229.794C267.645,223.688 267.556,214.571 267.379,202.446C267.202,190.321 267.114,181.205 267.114,175.098C267.114,173.239 267.756,171.668 269.039,170.385C270.322,169.102 271.893,168.46 273.752,168.46C275.61,168.46 277.181,169.102 278.465,170.385C279.748,171.668 280.39,173.239 280.39,175.098C280.39,181.205 280.478,189.878 280.655,201.119C280.832,212.359 280.899,222.559 280.854,231.72C280.81,240.88 280.655,249.354 280.39,257.143Z" style="fill:rgb(254,255,234);fill-rule:nonzero;stroke:black;stroke-opacity:0;stroke-width:1px;"/>
                <path d="M309.995,257.143C309.906,259.001 309.198,260.55 307.871,261.789C306.543,263.028 304.95,263.604 303.092,263.515C301.233,263.427 299.684,262.719 298.445,261.391C297.206,260.064 296.631,258.47 296.719,256.612C297.073,244.841 297.25,235.901 297.25,229.794C297.25,223.688 297.162,214.571 296.985,202.446C296.808,190.321 296.719,181.205 296.719,175.098C296.719,173.239 297.361,171.668 298.644,170.385C299.927,169.102 301.498,168.46 303.357,168.46C305.216,168.46 306.787,169.102 308.07,170.385C309.353,171.668 309.995,173.239 309.995,175.098C309.995,181.205 310.083,189.878 310.26,201.119C310.438,212.359 310.504,222.559 310.46,231.72C310.415,240.88 310.26,249.354 309.995,257.143Z" style="fill:rgb(254,255,234);fill-rule:nonzero;stroke:black;stroke-opacity:0;stroke-width:1px;"/>
                <path d="M341.193,263.515C334.644,262.365 329.909,259.71 326.988,255.55C325.572,253.691 324.554,251.213 323.935,248.115L323.404,245.195C323.227,244.309 323.05,243.601 322.873,243.07C322.342,241.389 322.519,239.751 323.404,238.158C324.289,236.565 325.616,235.547 327.386,235.105C329.157,234.662 330.838,234.839 332.431,235.636C334.024,236.432 335.086,237.716 335.617,239.486C335.883,240.459 336.148,241.566 336.414,242.805C336.502,243.247 336.569,243.668 336.613,244.066C336.657,244.464 336.812,245.15 337.078,246.124C337.343,247.274 337.963,248.248 338.936,249.045C339.998,250.018 341.592,250.638 343.716,250.903C347.256,251.611 351.062,251.523 355.133,250.638C359.116,249.753 362.213,248.469 364.426,246.788C366.019,245.372 366.683,243.911 366.418,242.407C366.152,239.928 364.603,238.07 361.771,236.831C360.001,236.034 355.399,234.972 347.964,233.645C340.264,232.14 334.821,230.193 331.635,227.803C325.793,223.466 323.89,217.005 325.926,208.42C327.165,203.464 329.71,199.813 333.56,197.468C337.41,195.122 341.68,193.817 346.371,193.551C350.354,193.374 354.403,193.839 358.518,194.945C362.634,196.052 366.152,197.578 369.073,199.525C370.046,200.234 371.064,201.074 372.126,202.048C373.188,203.021 374.228,204.084 375.246,205.234C376.264,206.385 376.861,207.004 377.038,207.093C378.366,208.42 379.03,209.947 379.03,211.673C379.03,213.399 378.388,214.903 377.105,216.187C375.821,217.47 374.272,218.112 372.458,218.112C370.644,218.112 369.073,217.492 367.745,216.253C366.86,215.457 365.975,214.616 365.09,213.731L363.231,211.474C362.7,211.031 362.081,210.589 361.373,210.146C359.691,209.084 357.523,208.177 354.867,207.425C352.212,206.672 349.601,206.34 347.035,206.429C342.344,206.694 339.644,208.332 338.936,211.341C338.14,214.527 338.405,216.607 339.733,217.581C341.326,218.731 344.911,219.882 350.486,221.032C358.717,222.449 364.338,223.82 367.347,225.148C374.604,228.423 378.72,233.689 379.693,240.946C380.49,246.876 378.277,252.009 373.055,256.346C369.073,259.621 364.028,261.878 357.921,263.117C352.08,264.445 346.504,264.577 341.193,263.515Z" style="fill:rgb(254,255,234);fill-rule:nonzero;stroke:black;stroke-opacity:0;stroke-width:1px;"/>
            </g>
        </g>
    </g>
</svg>
